<svg width="23" height="23" viewBox="0 0 23 23" fill="none" xmlns="http://www.w3.org/2000/svg">
<path d="M22.8711 11.0804C22.8711 17.1544 17.9465 22.0791 11.8698 22.08C5.79758 22.08 0.8729 17.1544 0.87378 11.0795C0.87202 5.00463 5.7967 0.0799561 11.8716 0.0799561C17.9465 0.0799561 22.8711 5.00551 22.8711 11.0804Z" fill="#EAB300"/>
<path fill-rule="evenodd" clip-rule="evenodd" d="M16.1995 8.38577C16.0578 6.91259 14.7861 6.41889 13.1792 6.27808V4.23376H11.9357V6.22352C11.6092 6.22352 11.2748 6.22968 10.943 6.23672V4.23376H9.69952L9.69864 6.27632L9.68535 6.27659C9.42063 6.28178 9.16022 6.28689 8.90661 6.28689V6.28073L7.19142 6.27984V7.6087C7.19142 7.6087 8.11018 7.5911 8.09434 7.60782C8.5986 7.60782 8.76229 7.89999 8.80981 8.15256V10.4811C8.84501 10.4811 8.88989 10.4829 8.94093 10.4899H8.80981L8.80893 13.7522C8.78693 13.9106 8.69364 14.1632 8.34163 14.1641C8.35747 14.1782 7.43783 14.1641 7.43783 14.1641L7.19054 15.6496H8.80981C8.99238 15.6496 9.17333 15.6515 9.35226 15.6534H9.35235C9.46837 15.6547 9.58354 15.6559 9.69776 15.6566L9.69864 17.7238H10.9413V15.6786C11.2818 15.6857 11.6118 15.6883 11.9348 15.6883L11.9339 17.7238H13.1774V15.661C15.2684 15.5413 16.7336 15.0142 16.9149 13.05C17.0619 11.4685 16.3183 10.7619 15.1311 10.4767C15.8536 10.1106 16.3051 9.46381 16.1995 8.38577ZM14.4589 12.8053C14.4589 14.2239 12.2279 14.1918 11.2103 14.1771H11.2102C11.1199 14.1758 11.0392 14.1746 10.9705 14.1746V11.4351C11.0564 11.4353 11.1611 11.4329 11.2797 11.4302C12.3257 11.4068 14.4589 11.3589 14.4589 12.8053ZM11.1785 10.1851C12.03 10.1985 13.8799 10.2277 13.8799 8.94106C13.8807 7.6242 12.098 7.67137 11.2265 7.69444C11.1283 7.69703 11.0417 7.69933 10.9705 7.69933V10.1828C11.0298 10.1827 11.0999 10.1838 11.1785 10.1851Z" fill="white"/>
<path d="M8.81184 10.4266H8.99664V10.563H8.81184V10.4266Z" fill="white"/>
</svg>
